<svg width="24" height="25" viewBox="0 0 24 25" fill="none" xmlns="http://www.w3.org/2000/svg">
<path d="M20.6256 3.46606H3.37564C2.9608 3.46606 2.62564 3.80122 2.62564 4.21606V21.4661C2.62564 21.8809 2.9608 22.2161 3.37564 22.2161H20.6256C21.0405 22.2161 21.3756 21.8809 21.3756 21.4661V4.21606C21.3756 3.80122 21.0405 3.46606 20.6256 3.46606ZM18.46 8.93872H16.9624C15.7881 8.93872 15.5608 9.49653 15.5608 10.3168V12.1239H18.3639L17.9983 14.9528H15.5608V22.2161H12.6381V14.9551H10.1936V12.1239H12.6381V10.0379C12.6381 7.61685 14.117 6.29731 16.278 6.29731C17.3139 6.29731 18.2022 6.37466 18.4624 6.40981V8.93872H18.46Z" fill="#67E8F9"/>
</svg>
