<svg width="24" height="25" viewBox="0 0 24 25" fill="none" xmlns="http://www.w3.org/2000/svg">
<path d="M11.9999 7.34355C8.95975 7.34355 6.50618 9.79712 6.50618 12.8373C6.50618 15.8775 8.95975 18.331 11.9999 18.331C15.0401 18.331 17.4937 15.8775 17.4937 12.8373C17.4937 9.79712 15.0401 7.34355 11.9999 7.34355ZM11.9999 16.4078C10.0339 16.4078 8.4294 14.8034 8.4294 12.8373C8.4294 10.8712 10.0339 9.26676 11.9999 9.26676C13.966 9.26676 15.5705 10.8712 15.5705 12.8373C15.5705 14.8034 13.966 16.4078 11.9999 16.4078ZM17.7187 5.83819C17.0089 5.83819 16.4356 6.4114 16.4356 7.12122C16.4356 7.83105 17.0089 8.40426 17.7187 8.40426C18.4285 8.40426 19.0017 7.83372 19.0017 7.12122C19.0019 6.95267 18.9689 6.78574 18.9045 6.62998C18.8401 6.47422 18.7456 6.33269 18.6264 6.21351C18.5072 6.09433 18.3657 5.99983 18.2099 5.93542C18.0542 5.87102 17.8872 5.83798 17.7187 5.83819ZM22.7089 12.8373C22.7089 11.3587 22.7223 9.89355 22.6392 8.41765C22.5562 6.70337 22.1651 5.18194 20.9115 3.92837C19.6553 2.67212 18.1365 2.28372 16.4223 2.20069C14.9437 2.11765 13.4785 2.13105 12.0026 2.13105C10.524 2.13105 9.05886 2.11765 7.58297 2.20069C5.86868 2.28372 4.34725 2.6748 3.09368 3.92837C1.83743 5.18462 1.44904 6.70337 1.366 8.41765C1.28297 9.89622 1.29636 11.3614 1.29636 12.8373C1.29636 14.3132 1.28297 15.781 1.366 17.2569C1.44904 18.9712 1.84011 20.4927 3.09368 21.7462C4.34993 23.0025 5.86868 23.3909 7.58297 23.4739C9.06154 23.5569 10.5267 23.5435 12.0026 23.5435C13.4812 23.5435 14.9464 23.5569 16.4223 23.4739C18.1365 23.3909 19.658 22.9998 20.9115 21.7462C22.1678 20.49 22.5562 18.9712 22.6392 17.2569C22.7249 15.781 22.7089 14.3159 22.7089 12.8373ZM20.3517 19.1534C20.1562 19.6409 19.9205 20.0052 19.5428 20.3802C19.1651 20.7578 18.8035 20.9935 18.316 21.1891C16.9071 21.7489 13.5615 21.623 11.9999 21.623C10.4383 21.623 7.09011 21.7489 5.68118 21.1918C5.19368 20.9962 4.8294 20.7605 4.4544 20.3828C4.07672 20.0052 3.841 19.6435 3.64547 19.156C3.08832 17.7444 3.21422 14.3989 3.21422 12.8373C3.21422 11.2757 3.08832 7.92747 3.64547 6.51855C3.841 6.03105 4.07672 5.66676 4.4544 5.29176C4.83207 4.91676 5.19368 4.67837 5.68118 4.48283C7.09011 3.92569 10.4383 4.05158 11.9999 4.05158C13.5615 4.05158 16.9098 3.92569 18.3187 4.48283C18.8062 4.67837 19.1705 4.91408 19.5455 5.29176C19.9231 5.66944 20.1589 6.03105 20.3544 6.51855C20.9115 7.92747 20.7856 11.2757 20.7856 12.8373C20.7856 14.3989 20.9115 17.7444 20.3517 19.1534Z" fill="#67E8F9"/>
</svg>
